<svg id="visual" viewBox="0 0 900 600" width="900" height="600" xmlns="http://www.w3.org/2000/svg"
    xmlns:xlink="http://www.w3.org/1999/xlink" version="1.1">
    <rect x="0" y="0" width="900" height="600" fill="#00081a"></rect>
    <path
        d="M533 0L472 0L472 55L591 55L591 109L520 109L520 164L499 164L499 218L501 218L501 273L541 273L541 327L583 327L583 382L468 382L468 436L510 436L510 491L563 491L563 545L593 545L593 600L0 600L0 545L0 545L0 491L0 491L0 436L0 436L0 382L0 382L0 327L0 327L0 273L0 273L0 218L0 218L0 164L0 164L0 109L0 109L0 55L0 55L0 0L0 0Z"
        fill="#001440"></path>
    <path
        d="M422 0L470 0L470 55L451 55L451 109L408 109L408 164L397 164L397 218L416 218L416 273L462 273L462 327L374 327L374 382L358 382L358 436L429 436L429 491L411 491L411 545L449 545L449 600L0 600L0 545L0 545L0 491L0 491L0 436L0 436L0 382L0 382L0 327L0 327L0 273L0 273L0 218L0 218L0 164L0 164L0 109L0 109L0 55L0 55L0 0L0 0Z"
        fill="#243159"></path>
    <path
        d="M303 0L231 0L231 55L256 55L256 109L230 109L230 164L335 164L335 218L240 218L240 273L264 273L264 327L316 327L316 382L257 382L257 436L219 436L219 491L224 491L224 545L211 545L211 600L0 600L0 545L0 545L0 491L0 491L0 436L0 436L0 382L0 382L0 327L0 327L0 273L0 273L0 218L0 218L0 164L0 164L0 109L0 109L0 55L0 55L0 0L0 0Z"
        fill="#445173"></path>
    <path
        d="M122 0L134 0L134 55L151 55L151 109L90 109L90 164L125 164L125 218L95 218L95 273L143 273L143 327L99 327L99 382L187 382L187 436L148 436L148 491L170 491L170 545L98 545L98 600L0 600L0 545L0 545L0 491L0 491L0 436L0 436L0 382L0 382L0 327L0 327L0 273L0 273L0 218L0 218L0 164L0 164L0 109L0 109L0 55L0 55L0 0L0 0Z"
        fill="#66728c"></path>
</svg>